<svg width="12" height="15" viewBox="0 0 12 15" fill="none" xmlns="http://www.w3.org/2000/svg">
<path d="M4.71733 6.3335C5.11733 6.3335 5.44133 6.6335 5.434 7.00016C5.434 7.36683 5.118 7.66683 4.71733 7.66683C4.324 7.66683 4 7.36683 4 7.00016C4 6.6335 4.31667 6.3335 4.71733 6.3335ZM7.28267 6.3335C7.68333 6.3335 8 6.6335 8 7.00016C8 7.36683 7.68333 7.66683 7.28267 7.66683C6.88933 7.66683 6.566 7.36683 6.566 7.00016C6.566 6.6335 6.882 6.3335 7.28267 6.3335ZM10.594 0.333496C11.3693 0.333496 12 0.977496 12 1.7755V14.3335L10.526 13.0035L9.696 12.2195L8.818 11.3862L9.182 12.6815H1.406C0.630667 12.6815 0 12.0375 0 11.2395V1.7755C0 0.977496 0.630667 0.333496 1.406 0.333496H10.5933H10.594ZM7.94733 9.4755C9.46267 9.42683 10.046 8.4115 10.046 8.4115C10.046 6.1575 9.058 4.33016 9.058 4.33016C8.07133 3.57483 7.13133 3.5955 7.13133 3.5955L7.03533 3.7075C8.20133 4.0715 8.74267 4.59683 8.74267 4.59683C8.10605 4.23816 7.40443 4.00972 6.67867 3.92483C6.21829 3.87283 5.75329 3.87731 5.294 3.93816C5.25267 3.93816 5.218 3.9455 5.17733 3.95216C4.93733 3.9735 4.354 4.06416 3.62067 4.3935C3.36733 4.51216 3.216 4.59683 3.216 4.59683C3.216 4.59683 3.78533 4.0435 5.01933 3.6795L4.95067 3.5955C4.95067 3.5955 4.01133 3.57483 3.024 4.33083C3.024 4.33083 2.03667 6.1575 2.03667 8.4115C2.03667 8.4115 2.61267 9.42616 4.128 9.4755C4.128 9.4755 4.38133 9.16083 4.588 8.89483C3.71667 8.62816 3.388 8.06816 3.388 8.06816C3.388 8.06816 3.456 8.1175 3.57933 8.1875C3.586 8.19416 3.59267 8.2015 3.60667 8.20816C3.62733 8.22283 3.648 8.2295 3.66867 8.2435C3.84 8.3415 4.01133 8.41816 4.16867 8.4815C4.45 8.5935 4.786 8.7055 5.17733 8.78283C5.76355 8.89774 6.36627 8.9 6.95333 8.7895C7.29528 8.72847 7.62889 8.62755 7.94733 8.48883C8.18733 8.3975 8.45467 8.26416 8.736 8.0755C8.736 8.0755 8.39333 8.6495 7.49467 8.90883C7.70067 9.17483 7.948 9.4755 7.948 9.4755H7.94733Z" fill="#F9F9F9"/>
</svg>
