<svg width="120" height="26" viewBox="0 0 120 26" fill="none" xmlns="http://www.w3.org/2000/svg">
<path d="M48.8907 16.2439C48.8907 17.6549 48.5493 18.6505 47.8704 19.2346C47.1023 19.887 45.7426 20.215 43.7912 20.215H34.9121V5.98047H43.4934C45.4145 5.98047 46.7231 6.25166 47.4228 6.79404C48.1169 7.33262 48.4659 8.29221 48.4659 9.67471C48.4659 10.6684 48.2952 11.3929 47.9538 11.848C47.6125 12.3202 46.9715 12.6559 46.029 12.8531C47.1706 12.9821 47.9538 13.3386 48.3824 13.9208C48.72 14.3892 48.8907 15.163 48.8907 16.2439ZM45.1756 9.94969C45.1756 9.29353 45.0542 8.87252 44.8115 8.68857C44.4985 8.44962 43.8026 8.32825 42.7235 8.32825H38.1778V11.9334H42.6761C43.6452 11.9334 44.3051 11.7911 44.6597 11.5067C45.0049 11.2374 45.1756 10.7177 45.1756 9.94969ZM45.5776 16.0296C45.5776 15.2199 45.4278 14.6794 45.1282 14.4082C44.8152 14.1503 44.1913 14.0232 43.2545 14.0232H38.1778V17.89H43.0838C44.0377 17.89 44.6939 17.7611 45.0466 17.5051C45.4012 17.2623 45.5776 16.7692 45.5776 16.0296Z" fill="#F9F9F9"/>
<path d="M62.8293 5.97754H51.043V8.32721H62.8293V5.97754Z" fill="#F7A501"/>
<path d="M62.8293 20.2141V17.8891H54.3314V14.1114H62.8293V11.8926H51.043V20.2141H62.8293Z" fill="#F9F9F9"/>
<path d="M78.8103 10.8069C78.8103 12.6274 78.4329 13.8886 77.68 14.5865C76.9252 15.2824 75.5181 15.6295 73.4548 15.6295H68.4368V20.215H65.1484V5.98047H72.6393C74.9321 5.98047 76.4644 6.21563 77.2325 6.68405C78.2831 7.32314 78.8103 8.69615 78.8103 10.8069ZM75.5636 10.9282C75.5636 9.87573 75.3778 9.17974 75.008 8.83839C74.6382 8.49892 73.8549 8.32825 72.6602 8.32825H68.4349V13.2779H72.5767C73.9422 13.2779 74.8164 13.0712 75.2033 12.6578C75.4441 12.4018 75.5636 11.8253 75.5636 10.9282Z" fill="#F9F9F9"/>
<path d="M86.457 15.1325H81.2305V12.999H86.457V15.1325Z" fill="#F9F9F9"/>
<path d="M102.859 20.215H89.9688V17.4178C89.9688 15.6978 90.5794 14.4897 91.8026 13.7918C92.7584 13.2495 94.1959 12.9783 96.117 12.9783C97.6967 12.9783 98.7283 12.7659 99.2119 12.343C99.5666 12.0263 99.7429 11.4137 99.7429 10.5034C99.7429 9.57988 99.5514 8.96165 99.1702 8.64874C98.7283 8.27704 97.8674 8.09119 96.5854 8.09119C95.0645 8.09119 94.1181 8.22584 93.7464 8.49702C93.2913 8.84028 93.0637 9.69556 93.0637 11.061H89.9688C89.9688 9.06785 90.3101 7.74414 90.9947 7.08987C91.8633 6.26303 93.7275 5.84961 96.5854 5.84961C98.9749 5.84961 100.632 6.18528 101.556 6.85472C102.424 7.48054 102.859 8.59753 102.859 10.2057C102.859 12.1552 102.404 13.4201 101.493 14.0042C100.996 14.3172 99.5742 14.6585 97.2264 15.0302C96.3161 15.1724 95.4134 15.3147 94.5164 15.4569C93.5757 15.7243 93.1035 16.2288 93.1035 16.9684L93.0618 17.9943H102.857V20.215H102.859Z" fill="#F9F9F9"/>
<path d="M119.701 14.6224C119.701 16.6402 119.372 18.0189 118.716 18.7604C117.778 19.8167 115.864 20.3439 112.978 20.3439C110.129 20.3439 108.206 19.9874 107.213 19.2763C106.16 18.5234 105.633 17.0631 105.633 14.8993V11.7835C105.633 9.48121 105.987 7.96596 106.697 7.23963C107.607 6.31228 109.608 5.84766 112.697 5.84766C115.432 5.84766 117.283 6.2478 118.248 7.04619C119.217 7.85597 119.702 9.45466 119.702 11.8442V14.6224H119.701ZM116.626 15.1382V11.2961C116.626 9.95721 116.412 9.10382 115.985 8.73212C115.502 8.30542 114.4 8.09113 112.676 8.09113C110.842 8.09113 109.718 8.28456 109.304 8.66954C108.891 9.05451 108.684 10.016 108.684 11.5521V15.18C108.684 16.3937 108.891 17.1636 109.304 17.4898C109.814 17.8994 111.024 18.1043 112.93 18.1043C114.525 18.1043 115.542 17.9203 115.984 17.5524C116.412 17.1826 116.626 16.3785 116.626 15.1382Z" fill="#F9F9F9"/>
<path d="M13 26C20.1797 26 26 20.1797 26 13C26 5.8203 20.1797 0 13 0C5.8203 0 0 5.8203 0 13C0 20.1797 5.8203 26 13 26Z" fill="#F7A501"/>
<path d="M10.7797 9.38172L13.0118 7.89871L13.9486 8.52074L13.9372 8.52833L15.2211 9.38172C16.2243 10.0493 17.5461 9.98099 18.4754 9.21483L15.5245 7.41892L13.0004 5.88281L11.5818 6.74568L7.52539 9.21483C8.45464 9.97909 9.77645 10.0474 10.7797 9.38172Z" fill="black"/>
<path d="M10.6738 17.7923L13.0007 20.1192L15.3277 17.7923L13.0007 15.7441L10.6738 17.7923Z" fill="black"/>
<path d="M8.86014 12.0761L8.84497 12.0874L8.32914 11.6323C7.16663 10.6082 5.47312 10.4603 4.14941 11.2663L6.56546 13.6823L9.49734 16.6142L11.8337 14.6893L8.86014 12.0761Z" fill="black"/>
<path d="M21.8494 11.2687C20.5257 10.4627 18.8322 10.6107 17.6697 11.6347L17.1539 12.0899L17.1387 12.0785L14.167 14.6899L16.5034 16.6147L19.4353 13.6829L21.8494 11.2687Z" fill="black"/>
<path d="M10.2207 11.2687L13.0009 13.5463L15.7829 11.2687L13.0009 9.31348L10.2207 11.2687Z" fill="black"/>
</svg>
