<svg width="14" height="14" viewBox="0 0 14 14" fill="none" xmlns="http://www.w3.org/2000/svg">
<path d="M6.99967 13.6668C3.31767 13.6668 0.333008 10.6822 0.333008 7.00016C0.333008 3.31816 3.31767 0.333496 6.99967 0.333496C10.6817 0.333496 13.6663 3.31816 13.6663 7.00016C13.6663 10.6822 10.6817 13.6668 6.99967 13.6668ZM11.4463 7.00016C11.4395 6.81251 11.3785 6.63085 11.2707 6.47708C11.1629 6.32331 11.013 6.20399 10.8389 6.13353C10.6649 6.06306 10.4741 6.04444 10.2897 6.07992C10.1053 6.11541 9.93515 6.20347 9.79967 6.3335C9.04129 5.81797 8.14981 5.53316 7.23301 5.5135L7.66634 3.4335L9.09301 3.7335C9.10997 3.89115 9.18257 4.0376 9.29777 4.14655C9.41297 4.2555 9.56324 4.31983 9.7216 4.32798C9.87995 4.33612 10.036 4.28756 10.1618 4.19101C10.2876 4.09445 10.3748 3.95623 10.4079 3.80115C10.4409 3.64606 10.4176 3.48428 10.3421 3.34483C10.2667 3.20539 10.1439 3.09741 9.99602 3.04029C9.8481 2.98316 9.68467 2.98063 9.53505 3.03315C9.38544 3.08566 9.25944 3.18979 9.17968 3.32683L7.54634 3.00016C7.51963 2.9943 7.49202 2.9938 7.46511 2.99869C7.4382 3.00358 7.41253 3.01376 7.38959 3.02864C7.36665 3.04353 7.34688 3.06281 7.33145 3.08539C7.31602 3.10797 7.30521 3.13338 7.29967 3.16016L6.80634 5.4735C5.87826 5.48749 4.97452 5.77251 4.20634 6.2935C4.10357 6.1968 3.981 6.1236 3.84713 6.07898C3.71325 6.03436 3.57128 6.01939 3.43104 6.03509C3.29081 6.05079 3.15566 6.0968 3.03497 6.16993C2.91429 6.24305 2.81094 6.34154 2.7321 6.45858C2.65326 6.57561 2.60082 6.70839 2.57839 6.84771C2.55597 6.98703 2.56411 7.12956 2.60224 7.26542C2.64038 7.40128 2.7076 7.52723 2.79925 7.63453C2.8909 7.74183 3.00478 7.82792 3.13301 7.88683C3.1255 7.98446 3.1255 8.08253 3.13301 8.18016C3.13301 9.6735 4.87301 10.8868 7.01967 10.8868C9.16634 10.8868 10.9063 9.6735 10.9063 8.18016C10.9138 8.08253 10.9138 7.98446 10.9063 7.88683C11.0709 7.80506 11.2089 7.67841 11.3044 7.5215C11.4 7.3646 11.4492 7.18385 11.4463 7.00016ZM4.77967 7.66683C4.77967 7.49002 4.84991 7.32045 4.97494 7.19543C5.09996 7.0704 5.26953 7.00016 5.44634 7.00016C5.62315 7.00016 5.79272 7.0704 5.91775 7.19543C6.04277 7.32045 6.11301 7.49002 6.11301 7.66683C6.11301 7.84364 6.04277 8.01321 5.91775 8.13823C5.79272 8.26326 5.62315 8.3335 5.44634 8.3335C5.26953 8.3335 5.09996 8.26326 4.97494 8.13823C4.84991 8.01321 4.77967 7.84364 4.77967 7.66683ZM8.65301 9.50016C8.18002 9.8566 7.59808 10.038 7.00634 10.0135C6.4146 10.038 5.83266 9.8566 5.35967 9.50016C5.33133 9.46562 5.31684 9.42177 5.31903 9.37714C5.32122 9.33251 5.33994 9.29029 5.37153 9.25869C5.40313 9.22709 5.44535 9.20838 5.48998 9.20619C5.53462 9.20399 5.57847 9.21848 5.61301 9.24683C6.01383 9.54083 6.50309 9.68902 6.99967 9.66683C7.49687 9.69387 7.98841 9.55041 8.39301 9.26016C8.41006 9.24107 8.43085 9.22568 8.4541 9.21496C8.47735 9.20425 8.50256 9.19842 8.52815 9.19786C8.55375 9.1973 8.57919 9.20201 8.60288 9.2117C8.62658 9.22138 8.64803 9.23584 8.6659 9.25417C8.68378 9.2725 8.69769 9.29431 8.70677 9.31825C8.71586 9.34218 8.71992 9.36773 8.71871 9.3933C8.7175 9.41888 8.71104 9.44393 8.69974 9.4669C8.68844 9.48987 8.67253 9.51027 8.65301 9.52683V9.50016ZM8.53301 8.36016C8.40115 8.36016 8.27226 8.32106 8.16263 8.24781C8.053 8.17455 7.96755 8.07044 7.91709 7.94862C7.86663 7.8268 7.85343 7.69276 7.87915 7.56344C7.90487 7.43412 7.96837 7.31533 8.0616 7.22209C8.15484 7.12886 8.27363 7.06536 8.40295 7.03964C8.53227 7.01392 8.66631 7.02712 8.78813 7.07758C8.90995 7.12804 9.01407 7.21348 9.08732 7.32312C9.16058 7.43275 9.19967 7.56164 9.19967 7.6935C9.2033 7.78383 9.18851 7.87395 9.15621 7.95838C9.12391 8.04282 9.07478 8.11981 9.0118 8.18466C8.94881 8.24951 8.8733 8.30088 8.78984 8.33563C8.70639 8.37039 8.61674 8.38781 8.52634 8.38683L8.53301 8.36016Z" fill="#F9F9F9"/>
</svg>
