<svg width="30" height="29" viewBox="0 0 30 29" fill="none" xmlns="http://www.w3.org/2000/svg">
<path fill-rule="evenodd" clip-rule="evenodd" d="M12.1438 2.51348C13.4393 0.360741 16.5603 0.360744 17.8559 2.51348L21.0012 7.73988L26.9437 9.11619C29.3914 9.68309 30.3559 12.6513 28.7088 14.5487L24.7102 19.1551L25.2376 25.2321C25.4548 27.7352 22.9299 29.5697 20.6164 28.5896L14.9998 26.2101L9.38323 28.5896C7.06977 29.5697 4.54484 27.7352 4.76208 25.2321L5.28948 19.1551L1.29082 14.5487C-0.356206 12.6513 0.608235 9.68309 3.05595 9.11619L8.99851 7.73988L12.1438 2.51348ZM14.9998 4.23226L11.8545 9.45867C11.3891 10.232 10.6299 10.7836 9.7506 10.9873L3.80805 12.3636L7.8067 16.97C8.3984 17.6516 8.68837 18.5441 8.61033 19.4433L8.08293 25.5203L13.6995 23.1408C14.5306 22.7887 15.469 22.7887 16.3001 23.1408L21.9167 25.5203L21.3893 19.4433C21.3113 18.5441 21.6013 17.6516 22.193 16.97L26.1916 12.3636L20.2491 10.9873C19.3697 10.7836 18.6106 10.232 18.1451 9.45867L14.9998 4.23226Z" fill="white"/>
</svg>
