<svg width="14" height="14" viewBox="0 0 14 14" fill="none" xmlns="http://www.w3.org/2000/svg">
<path d="M6.99967 13.6668C3.31767 13.6668 0.333008 10.6822 0.333008 7.00016C0.333008 3.31816 3.31767 0.333496 6.99967 0.333496C10.6817 0.333496 13.6663 3.31816 13.6663 7.00016C13.6663 10.6822 10.6817 13.6668 6.99967 13.6668ZM4.92634 7.78016L4.93501 7.7755L5.51501 9.68883C5.58967 9.89616 5.69234 9.9335 5.81701 9.91616C5.94234 9.8995 6.00834 9.83216 6.09034 9.7535L6.88234 8.98816L8.58234 10.2468C8.89301 10.4182 9.11634 10.3295 9.19368 9.95883L10.2983 4.74416C10.4203 4.25883 10.207 4.06416 9.83034 4.21883L3.34167 6.7255C2.89901 6.90283 2.90167 7.15083 3.26167 7.26083L4.92634 7.78083V7.78016Z" fill="#F9F9F9"/>
</svg>
