<svg width="14" height="12" viewBox="0 0 14 12" fill="none" xmlns="http://www.w3.org/2000/svg">
<path d="M13.3617 2.33184C13.6663 3.51984 13.6663 5.99984 13.6663 5.99984C13.6663 5.99984 13.6663 8.47984 13.3617 9.66784C13.1923 10.3245 12.697 10.8412 12.0697 11.0158C10.9303 11.3332 6.99967 11.3332 6.99967 11.3332C6.99967 11.3332 3.07101 11.3332 1.92967 11.0158C1.29967 10.8385 0.805008 10.3225 0.637675 9.66784C0.333008 8.47984 0.333008 5.99984 0.333008 5.99984C0.333008 5.99984 0.333008 3.51984 0.637675 2.33184C0.807008 1.67517 1.30234 1.1585 1.92967 0.983837C3.07101 0.666504 6.99967 0.666504 6.99967 0.666504C6.99967 0.666504 10.9303 0.666504 12.0697 0.983837C12.6997 1.16117 13.1943 1.67717 13.3617 2.33184ZM5.66634 8.33317L9.66634 5.99984L5.66634 3.6665V8.33317Z" fill="#F9F9F9"/>
</svg>
